<svg width="32" height="32" viewBox="0 0 120 120" fill="none" xmlns="http://www.w3.org/2000/svg">
  <!-- Open ledger book - smaller version for nav -->
  <rect x="20" y="15" width="80" height="90" rx="2" fill="#1F2937" stroke="#374151" stroke-width="1.5"/>
  <rect x="20" y="15" width="40" height="90" rx="2" fill="#111827"/>
  
  <!-- Lines on left page -->
  <line x1="28" y1="30" x2="58" y2="30" stroke="#6B7280" stroke-width="1"/>
  <line x1="28" y1="40" x2="58" y2="40" stroke="#6B7280" stroke-width="1"/>
  <line x1="28" y1="50" x2="58" y2="50" stroke="#6B7280" stroke-width="1"/>
  <line x1="28" y1="60" x2="58" y2="60" stroke="#6B7280" stroke-width="1"/>
  <line x1="28" y1="70" x2="58" y2="70" stroke="#6B7280" stroke-width="1"/>
  <line x1="28" y1="80" x2="58" y2="80" stroke="#6B7280" stroke-width="1"/>
  <line x1="28" y1="90" x2="58" y2="90" stroke="#6B7280" stroke-width="1"/>
  
  <!-- Lines on right page -->
  <line x1="62" y1="30" x2="92" y2="30" stroke="#9CA3AF" stroke-width="1"/>
  <line x1="62" y1="40" x2="92" y2="40" stroke="#9CA3AF" stroke-width="1"/>
  <line x1="62" y1="50" x2="92" y2="50" stroke="#9CA3AF" stroke-width="1"/>
  <line x1="62" y1="60" x2="92" y2="60" stroke="#9CA3AF" stroke-width="1"/>
  <line x1="62" y1="70" x2="92" y2="70" stroke="#9CA3AF" stroke-width="1"/>
  <line x1="62" y1="80" x2="92" y2="80" stroke="#9CA3AF" stroke-width="1"/>
  <line x1="62" y1="90" x2="92" y2="90" stroke="#9CA3AF" stroke-width="1"/>
  
  <!-- Binding/spine -->
  <rect x="58" y="15" width="4" height="90" fill="#111827"/>
</svg>
